<?xml version="1.0" encoding="UTF-8"?>
<svg version="1.1" xmlns="http://www.w3.org/2000/svg" width="512" height="512">
<path d="M0 0 C1.01790619 0.00215515 2.03581238 0.0043103 3.08456421 0.00653076 C17.69363523 0.05620146 32.02575853 0.30709809 46.375 3.3125 C47.34985352 3.51117676 48.32470703 3.70985352 49.32910156 3.91455078 C97.7109774 14.03517194 141.69928269 35.9516877 177.375 70.3125 C178.3640332 71.26068604 178.3640332 71.26068604 179.37304688 72.22802734 C188.86130305 81.37247479 197.6012044 90.66984009 205.375 101.3125 C206.23306152 102.46355017 207.09113451 103.61459177 207.94921875 104.765625 C213.98736829 112.95680614 219.34595521 121.47054105 224.375 130.3125 C224.73948242 130.94430176 225.10396484 131.57610352 225.47949219 132.22705078 C247.08534998 169.97532572 256.85198095 212.74189997 256.6875 255.9375 C256.68534485 256.95540619 256.6831897 257.97331238 256.68096924 259.02206421 C256.63129854 273.63113523 256.38040191 287.96325853 253.375 302.3125 C253.07698486 303.77478027 253.07698486 303.77478027 252.77294922 305.26660156 C242.65232806 353.6484774 220.7358123 397.63678269 186.375 433.3125 C185.74287598 433.97185547 185.11075195 434.63121094 184.45947266 435.31054688 C175.31502521 444.79880305 166.01765991 453.5387044 155.375 461.3125 C154.22394983 462.17056152 153.07290823 463.02863451 151.921875 463.88671875 C143.73224019 469.92427396 135.22961724 475.30707302 126.375 480.3125 C125.66778809 480.7146875 124.96057617 481.116875 124.23193359 481.53125 C101.09654164 494.5566741 75.92537591 503.30551461 49.9375 508.625 C49.21860596 508.77235596 48.49971191 508.91971191 47.7590332 509.0715332 C33.08339502 511.86090125 18.55831162 512.66142619 3.64770508 512.62817383 C0.70811513 512.6250221 -2.2304558 512.64854926 -5.16992188 512.67382812 C-18.54306192 512.71848737 -31.43916711 511.51301542 -44.625 509.3125 C-46.33055054 509.03031616 -46.33055054 509.03031616 -48.07055664 508.74243164 C-91.33802759 500.97044532 -132.38793216 480.98345309 -165.625 452.3125 C-166.37007813 451.67828125 -167.11515625 451.0440625 -167.8828125 450.390625 C-181.38779833 438.57948485 -194.05918743 425.82889772 -204.625 411.3125 C-205.48149066 410.16255169 -206.33826433 409.01281411 -207.1953125 407.86328125 C-213.23534209 399.67315742 -218.61867614 391.16870382 -223.625 382.3125 C-224.0271875 381.60528809 -224.429375 380.89807617 -224.84375 380.16943359 C-237.8691741 357.03404164 -246.61801461 331.86287591 -251.9375 305.875 C-252.08485596 305.15610596 -252.23221191 304.43721191 -252.3840332 303.6965332 C-255.35789088 288.05024391 -255.99800362 272.57681954 -255.9375 256.6875 C-255.93534485 255.66959381 -255.9331897 254.65168762 -255.93096924 253.60293579 C-255.88129854 238.99386477 -255.63040191 224.66174147 -252.625 210.3125 C-252.42632324 209.33764648 -252.22764648 208.36279297 -252.02294922 207.35839844 C-241.90232806 158.9765226 -219.9858123 114.98821731 -185.625 79.3125 C-184.99287598 78.65314453 -184.36075195 77.99378906 -183.70947266 77.31445312 C-174.56502521 67.82619695 -165.26765991 59.0862956 -154.625 51.3125 C-153.47394983 50.45443848 -152.32290823 49.59636549 -151.171875 48.73828125 C-142.98224019 42.70072604 -134.47961724 37.31792698 -125.625 32.3125 C-124.91778809 31.9103125 -124.21057617 31.508125 -123.48193359 31.09375 C-100.34654164 18.0683259 -75.17537591 9.31948539 -49.1875 4 C-48.46860596 3.85264404 -47.74971191 3.70528809 -47.0090332 3.5534668 C-31.36274391 0.57960912 -15.88931954 -0.06050362 0 0 Z " fill="#048CF2" transform="translate(255.625,-0.3125)"/>
<path d="M0 0 C0.87688907 -0.00538554 1.75377815 -0.01077108 2.65723962 -0.01631981 C5.58350177 -0.03058024 8.50931033 -0.02350032 11.43559265 -0.01637268 C13.53860334 -0.02207731 15.64161093 -0.02904193 17.74461365 -0.03717041 C23.44927877 -0.05510845 29.15379012 -0.05393194 34.85847497 -0.04822803 C39.62475446 -0.04513652 44.39100439 -0.05122835 49.15727967 -0.05726677 C60.40486084 -0.07131308 71.65236606 -0.06975034 82.89994812 -0.05836487 C94.4930544 -0.04688874 106.0859292 -0.06095071 117.67900497 -0.08776134 C127.64101994 -0.10993507 137.60296234 -0.11655178 147.56500024 -0.11068493 C153.51099355 -0.10731755 159.45683855 -0.10971581 165.40281105 -0.12693596 C170.99664076 -0.14242908 176.59012839 -0.13842298 182.1839447 -0.11963081 C184.23253503 -0.11595125 186.28115082 -0.11903488 188.32971764 -0.1295166 C211.03043507 -0.23676448 211.03043507 -0.23676448 219.9382782 7.57518005 C225.75699629 14.06793404 227.84755644 20.70202856 227.50468445 29.39549255 C226.34085608 37.28480696 222.33288692 42.78271044 216.41874695 47.9150238 C210.08519654 51.87480574 204.30044245 52.8302802 197.00630188 52.78208923 C196.12855838 52.78818034 195.25081488 52.79427144 194.3464731 52.80054712 C191.42332766 52.81711444 188.50062083 52.81241028 185.57743835 52.80760193 C183.47427928 52.81494588 181.37112423 52.82353305 179.26797485 52.83326721 C173.56750993 52.85545715 167.86718967 52.85841515 162.16668749 52.8565197 C157.40284139 52.85639989 152.63902582 52.86496844 147.87518823 52.87329721 C136.63382765 52.89252211 125.39254133 52.89541836 114.15116882 52.88865662 C102.56538585 52.8820158 90.97992124 52.90488417 79.39420283 52.94197035 C69.43641186 52.97268555 59.47872321 52.9840254 49.52088583 52.98013353 C43.57821965 52.978068 37.63580128 52.98351549 31.69318008 53.00802612 C26.103388 53.03032063 20.51411295 53.02839249 14.92431831 53.0080986 C12.87733494 53.00469343 10.83031658 53.00975629 8.78338051 53.02408218 C-12.75946716 53.1644063 -12.75946716 53.1644063 -21.04880333 45.41254425 C-26.4096725 39.83304369 -29.04953861 34.34862715 -29.4367218 26.57518005 C-29.21727541 19.26030035 -26.97297775 13.75424 -22.0695343 8.31736755 C-15.28567013 2.00863783 -9.0781439 -0.06741279 0 0 Z " fill="#FDFEFE" transform="translate(156.9367218017578,229.61231994628906)"/>
<path d="M0 0 C0.88323818 -0.00467997 1.76647636 -0.00935994 2.67647934 -0.01418173 C5.61813392 -0.02608975 8.55931902 -0.01669091 11.50097656 -0.00723267 C13.61723094 -0.01130022 15.7334832 -0.01664314 17.84973145 -0.02316284 C23.58520227 -0.03682023 29.3205109 -0.03154423 35.0559845 -0.02202559 C41.06336905 -0.01442087 47.07073989 -0.02147686 53.078125 -0.02618408 C63.16571542 -0.03163925 73.25323991 -0.02445623 83.34082031 -0.01016235 C94.99700581 0.00616365 106.65303387 0.00087498 118.30921555 -0.01564157 C128.32387004 -0.02926318 138.3384772 -0.03117278 148.35313797 -0.02332556 C154.33143951 -0.01865278 160.3096671 -0.0180134 166.28796387 -0.02793503 C171.90884253 -0.03661218 177.52951855 -0.0305689 183.15037537 -0.01325226 C185.21109175 -0.00929145 187.27182525 -0.0104145 189.33253479 -0.01704025 C192.1496531 -0.02526176 194.96612573 -0.01492671 197.78320312 0 C198.59488827 -0.00669217 199.40657341 -0.01338433 200.24285507 -0.02027929 C207.94887206 0.0586903 214.56673186 2.19795902 220.28222656 7.53329468 C225.73466857 13.79301572 227.6941715 20.24860431 227.31347656 28.48641968 C226.27156126 35.63511636 222.94820865 41.32434384 217.89160156 46.38095093 C211.42872193 50.92243391 205.9800376 51.52951297 198.26422119 51.52139282 C196.94449047 51.52584951 196.94449047 51.52584951 195.59809852 51.53039622 C192.64416546 51.5390814 189.69027294 51.54059132 186.73632812 51.54208374 C184.62066562 51.54671204 182.50500396 51.55173672 180.38934326 51.55712891 C174.63716062 51.57025379 168.88498966 51.57669805 163.13279438 51.58113956 C159.53929042 51.58407017 155.94578965 51.58817496 152.35228729 51.59264374 C141.10972872 51.60631895 129.86717745 51.61598547 118.62461114 51.61984563 C105.64548898 51.62432648 92.66647212 51.64187558 79.68738198 51.67084622 C69.65583462 51.69246061 59.6243169 51.70254978 49.5927465 51.70388675 C43.6009566 51.70493495 37.60926569 51.71084616 31.61750031 51.72870636 C25.98028131 51.74518273 20.34323577 51.74734456 14.70600128 51.73856735 C12.63882991 51.73779675 10.57164923 51.74214275 8.50450134 51.7520256 C5.67843356 51.76474265 2.8529803 51.75886947 0.0269165 51.7484436 C-0.78749712 51.75650001 -1.60191074 51.76455641 -2.44100356 51.77285695 C-10.28203425 51.70539011 -16.71841257 49.47425994 -22.56933594 44.13095093 C-28.02331539 37.92947176 -29.53579189 30.63282662 -29.44824219 22.58798218 C-28.656058 15.11231297 -24.90717877 9.41266733 -19.24511719 4.63485718 C-12.88175736 0.90060031 -7.22522571 -0.05957039 0 0 Z " fill="#FEFEFE" transform="translate(157.1083984375,146.61904907226563)"/>
<path d="M0 0 C0.88323818 -0.00467997 1.76647636 -0.00935994 2.67647934 -0.01418173 C5.61813392 -0.02608975 8.55931902 -0.01669091 11.50097656 -0.00723267 C13.61723094 -0.01130022 15.7334832 -0.01664314 17.84973145 -0.02316284 C23.58520227 -0.03682023 29.3205109 -0.03154423 35.0559845 -0.02202559 C41.06336905 -0.01442087 47.07073989 -0.02147686 53.078125 -0.02618408 C63.16571542 -0.03163925 73.25323991 -0.02445623 83.34082031 -0.01016235 C94.99700581 0.00616365 106.65303387 0.00087498 118.30921555 -0.01564157 C128.32387004 -0.02926318 138.3384772 -0.03117278 148.35313797 -0.02332556 C154.33143951 -0.01865278 160.3096671 -0.0180134 166.28796387 -0.02793503 C171.90884253 -0.03661218 177.52951855 -0.0305689 183.15037537 -0.01325226 C185.21109175 -0.00929145 187.27182525 -0.0104145 189.33253479 -0.01704025 C192.1496531 -0.02526176 194.96612573 -0.01492671 197.78320312 0 C198.59488827 -0.00669217 199.40657341 -0.01338433 200.24285507 -0.02027929 C208.48361689 0.06417025 214.94407553 2.4334249 220.89160156 8.38095093 C226.290356 15.83706854 228.00522289 22.13681274 226.89160156 31.38095093 C224.31707435 39.27553436 220.40751186 45.54009971 212.89160156 49.38095093 C207.80795436 51.45413513 203.41871154 51.66658823 198.02371216 51.64164734 C197.14218283 51.64547289 196.26065349 51.64929843 195.35241115 51.65323991 C192.40463886 51.66354165 189.45706238 51.6595831 186.50927734 51.65560913 C184.39331889 51.65995718 182.27736201 51.66514063 180.16140747 51.6710968 C174.41758941 51.68448836 168.67383714 51.68506526 162.9300065 51.6825335 C158.1337706 51.68146385 153.33754801 51.68634703 148.54131496 51.69113892 C137.22528708 51.70223475 125.9092924 51.70267114 114.59326172 51.69662476 C102.9223557 51.6905846 91.25157023 51.70289694 79.58068478 51.72419482 C69.55758398 51.74181264 59.53452154 51.74781187 49.51140583 51.74455708 C43.52636047 51.74274431 37.54140111 51.74537991 31.55636978 51.75927162 C25.92732112 51.77184812 20.2984603 51.76990739 14.66941452 51.75686073 C12.60547065 51.754495 10.54151356 51.75722952 8.47758484 51.76548386 C5.6559918 51.77595315 2.83502887 51.76784902 0.01345825 51.75517273 C-0.79959113 51.76254701 -1.61264051 51.7699213 -2.45032775 51.77751905 C-10.74565182 51.69933783 -17.06110001 49.29081075 -23.10839844 43.38095093 C-28.18212241 36.89785919 -29.66160947 30.33330307 -29.48339844 22.22470093 C-28.52520453 14.95839712 -24.76683998 9.29424543 -19.24511719 4.63485718 C-12.88175736 0.90060031 -7.22522571 -0.05957039 0 0 Z " fill="#FEFEFE" transform="translate(157.1083984375,313.6190490722656)"/>
</svg>
